<?xml version="1.0" encoding="iso-8859-1"?>
<!-- Generator: Adobe Illustrator 19.1.0, SVG Export Plug-In . SVG Version: 6.00 Build 0)  -->
<svg xmlns="http://www.w3.org/2000/svg" xmlns:xlink="http://www.w3.org/1999/xlink"  style="fill:#00FF00;" version="1.1" id="Capa_1" x="0px" y="0px" viewBox="0 0 67.283 67.283"  xml:space="preserve" width="512px" height="512px">
<g>
	<path style="fill:#00FA9A;" d="M33.641,0c-18.48,0-33.6,15.139-33.6,33.641s15.12,33.641,33.6,33.641s33.6-15.139,33.6-33.641S52.121,0,33.641,0z    M33.641,58.872c-13.86,0-25.2-11.354-25.2-25.231S19.781,8.41,33.641,8.41s25.2,11.354,25.2,25.231S47.501,58.872,33.641,58.872z" fill="#FFFFFF"/>
	<path style="fill:#00FA9A" d="M43.301,22.287l-13.86,13.877l-5.88-5.887c-1.68-1.682-4.2-1.682-5.88,0s-1.68,4.205,0,5.887l8.82,8.831   c0.84,0.841,1.68,1.262,2.94,1.262s2.1-0.421,2.94-1.262l16.8-16.821c1.68-1.682,1.68-4.205,0-5.887   C47.501,20.605,44.981,20.605,43.301,22.287z" fill="#FFFFFF"/>
</g>
<g>
</g>
<g>
</g>
<g>
</g>
<g>
</g>
<g>
</g>
<g>
</g>
<g>
</g>
<g>
</g>
<g>
</g>
<g>
</g>
<g>
</g>
<g>
</g>
<g>
</g>
<g>
</g>
<g>
</g>
</svg>
